<?xml version="1.0" encoding="UTF-8"?><svg id="Layer_1" xmlns="http://www.w3.org/2000/svg" xmlns:xlink="http://www.w3.org/1999/xlink" viewBox="0 0 186.825 255.585"><defs><clipPath id="clippath"><rect x=".409" y="89" width="186" height="120" fill="none"/></clipPath></defs><rect x=".409" y="89" width="186" height="120" fill="#dbb9a8"/><polygon points="93.409 0 .409 71.662 .409 89 93.409 89 186.409 89 186.409 71.662 93.409 0" fill="#dbb9a8"/><path d="M9.782,75.806s2.606-.799,27.366,17.966c24.76,18.765,31.927,26.008,31.927,26.008h49.52l41.05-30.523s11.077-10.347,17.593-11.382c0,0,.652-4.139-16.29-15.52-16.941-11.381-60.597-47.595-60.597-47.595,0,0-7.167-4.139-13.683,0-6.516,4.139-76.887,61.046-76.887,61.046Z" fill="#fff"/><polyline points="186.409 209 126.89 119.78 63.035 119.78 .409 209" fill="none" stroke="#a08b75" stroke-miterlimit="10"/><g clip-path="url(#clippath)"><path d="M17.767,139.452s.892,22.859,2.629,28.389c1.737,5.53,8.149-9.2,10.252-14.195,2.103-4.994,1.697-8.937-2.7-10.251s-10.18-3.943-10.18-3.943Z" fill="#dbb9a8" stroke="#fff" stroke-miterlimit="10"/><path d="M19.081,97.278s-8.149,8.265-11.04,19.568c-2.891,11.303,5.895,19.194,9.726,22.606,0,0,5.783,2.629,10.18,3.943,2.169.648,3.363,1.938,3.768,3.676-.327-1.562-1.498-5.541-5.536-10.774,0,0-1.298-5.783,5.66-5.52,6.957.263,10.637-2.629,11.952-11.04,1.314-8.412-15.509-31.251-24.709-22.46Z" fill="#dbb9a8" stroke="#fff" stroke-miterlimit="10"/><path d="M31.754,147.264c.034.175.065.353.084.537,0,0-.018-.19-.084-.537Z" fill="#dbb9a8" stroke="#fff" stroke-miterlimit="10"/><path d="M31.839,130.778c-6.957-.263-5.66,5.52-5.66,5.52,4.038,5.232,5.209,9.212,5.536,10.774-.245-1.055-.787-1.941-1.655-2.623.639.986,1.257,2.103,1.779,3.352-.019-.184-.05-.361-.084-.537.066.347.084.537.084.537l6.588-18.236-.004-.002c-1.752.951-3.927,1.316-6.584,1.215Z" fill="#dbb9a8" stroke="#fff" stroke-miterlimit="10"/><path d="M26.179,136.298s-1.577-2.497-2.103-5.389c0,0,.55-4.206,1.589-9.069,1.039-4.863,1.302-5.257,2.748-4.863,1.446.394,1.432,13.919,1.432,13.919,0,0-4.323.538-3.666,5.401Z" fill="#dbb9a8" stroke="#fff" stroke-miterlimit="10"/><path d="M20.396,167.841s-6.309,40.656-2.629,86.744" fill="none" stroke="#fff" stroke-linecap="round" stroke-miterlimit="10" stroke-width="2"/><path d="M22.399,254.585s1.502-32.945,13.768-56.427c0,0-7.678,3.855-8.22-2.103-.542-5.958,6.246-6.334,10.479-10.865,4.234-4.531-4.89-8.489,0-12.442s12.11-2.092,17.718-3.587c5.608-1.495,8.762-.093,9.112-5.35.35-5.257,2.789-13.138,12.267-15.772,9.478-2.633,14.554,1.521,10.514,2.362-4.039.841-12.202.091-17.842,10.605-5.64,10.514-24.292,16.831-35.08,45.65-10.789,28.819-11.303,47.928-11.303,47.928h-1.414Z" fill="#dbb9a8" stroke="#fff" stroke-miterlimit="10"/><path d="M65.257,163.811c.23-3.453,1.377-8.029,4.81-11.516l.013-.037.033-.01c1.79-1.802,4.185-3.313,7.411-4.209,3.534-.982,6.455-1.02,8.521-.638-.006-.001-11.765-2.516-20.437-.226-8.674,2.291-9.463,4.806-9.463,8.486s-7.623,1.577-16.034,7.36c-8.412,5.783-1.684,9.726-1.684,9.726,4.891-3.953,12.11-2.092,17.718-3.587,5.608-1.495,8.762-.093,9.112-5.35Z" fill="#dbb9a8" stroke="#fff" stroke-miterlimit="10"/><path d="M31.879,189.786c2.076-1.285,4.584-2.494,6.547-4.596,4.234-4.531-4.89-8.489,0-12.442,0,0-5.939,1.84-8.582,7.097s2.032,9.938,2.032,9.938l.003.003Z" fill="#dbb9a8" stroke="#fff" stroke-miterlimit="10"/></g></svg>