<svg xmlns="http://www.w3.org/2000/svg" xmlns:xlink="http://www.w3.org/1999/xlink" width="169.169" height="246.941" viewBox="0 0 169.169 246.941">
  <defs>
    <linearGradient id="linear-gradient" x1="0.5" y1="0.048" x2="0.5" y2="0.36" gradientUnits="objectBoundingBox">
      <stop offset="0.19" stop-color="#910d19"/>
      <stop offset="0.549" stop-color="#c61027"/>
      <stop offset="0.871" stop-color="#910d19"/>
    </linearGradient>
    <linearGradient id="linear-gradient-2" x1="0.5" y1="0.053" x2="0.5" y2="0.368" xlink:href="#linear-gradient"/>
    <linearGradient id="linear-gradient-3" x1="0.5" y1="0.061" x2="0.5" y2="0.374" xlink:href="#linear-gradient"/>
    <linearGradient id="linear-gradient-4" x1="0.5" y1="0.034" x2="0.5" y2="0.236" xlink:href="#linear-gradient"/>
    <linearGradient id="linear-gradient-5" x1="0.643" y1="1.206" x2="0.643" y2="0.208" gradientUnits="objectBoundingBox">
      <stop offset="0" stop-color="#f9955c"/>
      <stop offset="1" stop-color="#e25b2c"/>
    </linearGradient>
    <linearGradient id="linear-gradient-6" x1="0.023" y1="0.982" x2="0.982" y2="0.102" gradientUnits="objectBoundingBox">
      <stop offset="0.19" stop-color="#910d19"/>
      <stop offset="1" stop-color="#c61027"/>
    </linearGradient>
    <linearGradient id="linear-gradient-7" x1="0" y1="0.5" x2="1" y2="0.5" xlink:href="#linear-gradient-6"/>
    <linearGradient id="linear-gradient-8" x1="-0.718" y1="1.254" x2="0.774" y2="0.063" xlink:href="#linear-gradient-6"/>
    <linearGradient id="linear-gradient-9" x1="0.264" y1="0.188" x2="0.554" y2="0.765" xlink:href="#linear-gradient-6"/>
    <linearGradient id="linear-gradient-10" x1="1.167" y1="2.625" x2="0.996" y2="1.465" gradientUnits="objectBoundingBox">
      <stop offset="0" stop-color="#f9955c"/>
      <stop offset="1" stop-color="#f16530"/>
    </linearGradient>
  </defs>
  <g id="Group_13589" data-name="Group 13589" transform="translate(0 4.62)">
    <path id="Path_10528" data-name="Path 10528" d="M292.995,201.139a5.118,5.118,0,0,1,.134-.7C293.116,200.576,293.063,200.818,292.995,201.139Z" transform="translate(-213.666 -75.456)" fill="#e50019"/>
    <path id="Path_10529" data-name="Path 10529" d="M274.091,251.689v24.463a12.842,12.842,0,0,1-1.646,7.083,5.276,5.276,0,0,1-4.657,2.486q-6.488,0-6.489-9.78V249.314a7.078,7.078,0,0,0-7.074-7.083h-2.384v33.014q0,9.352,4,14.14t11.63,4.784q7.825,0,11.951-4.827,4.135-4.809,4.14-13.963V242.231A9.463,9.463,0,0,0,274.091,251.689Z" transform="translate(-209.073 -80.12)" fill="url(#linear-gradient)"/>
    <path id="Path_10530" data-name="Path 10530" d="M368.217,248.388a8.412,8.412,0,0,0-8.169-6.4H353.7l-12.682,51.446h4.293a6.57,6.57,0,0,0,6.4-5.106L353.5,280.5h13.351l1.518,6.693a8.021,8.021,0,0,0,7.82,6.243h3.172Zm-12.826,23.674q2.94-12.927,3.639-16.558t1.162-6.642c.119.984.458,2.926,1.035,5.836s.934,4.725,1.1,5.446l2.732,11.918Z" transform="translate(-219.027 -80.094)" fill="url(#linear-gradient-2)"/>
    <text id="EXPRESS" transform="translate(38.357 227.035)" fill="#f77e0b" font-size="17" font-family="MyriadPro-Regular, Myriad Pro" letter-spacing="0.304em"><tspan x="0" y="0">EXPRESS</tspan></text>
    <path id="Path_10531" data-name="Path 10531" d="M321.008,241.456v21.049H308.433V242.146H298.9v51.231h3.659a5.871,5.871,0,0,0,5.873-5.872V270.918h12.575v15.819a6.633,6.633,0,0,0,6.64,6.64h2.892V241.456Z" transform="translate(-214.325 -80.034)" fill="url(#linear-gradient-3)"/>
    <path id="Path_10532" data-name="Path 10532" d="M245.741,241.954v.84a6.76,6.76,0,0,0-6.837,5.9l.043,8.949v52.4s-.246,12.419-16.371,12.359V321.6c.009,0,.009,0,.017-.009.322-.1,5.513-1.985,6.124-11.29l.271-52.651.043-8.949s-.814-5.836-6.837-5.9v-.84Z" transform="translate(-205.763 -80.089)" fill="url(#linear-gradient-4)"/>
    <path id="Path_10533" data-name="Path 10533" d="M284.021,201c-.847.008-1.693,0-2.555-.015a3.631,3.631,0,0,1-.538,0l-.081-.37-1.444-6.132-.275-1.176-.119-.529-4.592-19.562-.237-1.031-1.034-4.388,4.318-.155.068.008,3.271-.118,11.48-.4.013,0,2.75-.093,2.8-.1,7.174-.257.586.1,11.616,2.026,1.417.259.421.064,2.03.362.014.012.664,1.175.292.5c0,.013,0,.027.015.026a.152.152,0,0,0,.03.038l1.233,2.154.293.516,4.036,7s.513.581,1.383,1.633c.973,1.166,2.378,2.918,4,5.085a.735.735,0,0,1,.12.166c.223.292.446.585.672.905-.168.093-.337.172-.52.253a.047.047,0,0,1-.026.015h-.013a129.235,129.235,0,0,1-14.453,5.872,116.827,116.827,0,0,1-17.645,4.506c-.49.09-.982.179-1.488.243A109.218,109.218,0,0,1,284.021,201Z" transform="translate(-211.451 -71.687)" fill="#390d21"/>
    <path id="Path_10534" data-name="Path 10534" d="M342.811,190.4a5.7,5.7,0,0,1-.584.285l.456,1.082-.559-1.021c-.247.125-.493.25-.753.364-.168.093-.337.172-.52.253-.106-.167-.182-.283-.243-.372l-.061-.1.152-.683.335-1.49V188.7l.134-.548.014.012C341.285,188.294,341.866,189.071,342.811,190.4Z" transform="translate(-218.974 -74.084)" fill="#720a12"/>
    <path id="Path_10535" data-name="Path 10535" d="M341.374,187.85a5.7,5.7,0,0,1-.584.285l.456,1.082-.559-1.021-1.09-2.031v-.013l-.34-.608-.936-1.747L328,165.867l-.322-.555c.013,0,.028.012.041.011.054.01.163.028.3.045,2.3.41,15.533,2.815,17.47,4.488,2.124,1.835-1.39,4.511-1.39,4.511.381.242.774.468,1.14.7.241.157.522.325.832.517.8.52,1.551.989,2.214,1.411,1.057.663,2.271,1.447,3.613,2.33a.68.68,0,0,0,.069.036c1.186.774,2.458,1.621,3.8,2.518a25.329,25.329,0,0,0-8.578,2.928c-.7.386-1.421.79-2.185,1.195C343.864,186.606,342.646,187.233,341.374,187.85Z" transform="translate(-217.537 -71.535)" fill="#720a12"/>
    <path id="Path_10536" data-name="Path 10536" d="M353.4,180.707s-4.957.968-6.455,4.009a7.532,7.532,0,0,0-.506,2.631c-1.139.608-2.357,1.235-3.629,1.852a5.7,5.7,0,0,1-.584.285l.456,1.082-.559-1.021c-.247.125-.493.251-.753.364-.168.093-.337.172-.52.253a.046.046,0,0,1-.026.015l-.217-.387-.061-.1s0-.31.032-.849c.019-.485.063-1.161.114-1.945.239-3.338.848-8.6,2.356-9.315,1.727-.825,6.952,1.481,9.25,2.576.515.244.879.433,1.033.515A.7.7,0,0,0,353.4,180.707Z" transform="translate(-218.974 -72.885)" fill="#720a12" opacity="0.6" style="mix-blend-mode: multiply;isolation: isolate"/>
    <path id="Path_10537" data-name="Path 10537" d="M284.021,200.843l-2.566-7.866-.848-2.573-.295-.906-5.229-15.952-.5-1.537-1.436-4.372,4.247-.2.053,0,3.308-.162,11.308-.533h.013l2.747-.134,2.92-.147,6.832-.326,1.474-.068,4.448-.218,6.471-.314.884-.037.872-.037,2.867-.143.307.717,7.156,16.375.967,2.2,0,.013s-6.3,5.343-11.187,10.083a116.827,116.827,0,0,1-17.645,4.506c-.49.09-.982.179-1.488.243A109.216,109.216,0,0,1,284.021,200.843Z" transform="translate(-211.451 -71.535)" fill="#390d21" opacity="0.59" style="mix-blend-mode: multiply;isolation: isolate"/>
    <path id="Path_10538" data-name="Path 10538" d="M251.192,200.126a113.531,113.531,0,0,1-14.115-4.747,1.047,1.047,0,0,0,.1-.169,50.353,50.353,0,0,1,2.558-4.368l.048-.071.036-.069a.049.049,0,0,0,.041.011c.708.123,10.357,1.89,16.327,5.392a14.506,14.506,0,0,1,2.728,2.005,30.882,30.882,0,0,1,3.465,4.344c-.965-.145-1.918-.3-2.9-.487Q255.388,201.238,251.192,200.126Z" transform="translate(-207.425 -74.369)" fill="#910d18"/>
    <path id="Path_10539" data-name="Path 10539" d="M251.2,200.126c-3.325-2.808-14.02-4.915-14.02-4.915l2.558-4.368.048-.071.036-.069a.049.049,0,0,0,.041.011l1.682.562a.335.335,0,0,1,.11.032l3.278,1.078a.1.1,0,0,0,.056.022l11.2,3.7a14.5,14.5,0,0,1,2.728,2.005,30.877,30.877,0,0,1,3.465,4.344c-.965-.145-1.918-.3-2.9-.487Q255.4,201.238,251.2,200.126Z" transform="translate(-207.437 -74.369)" fill="#720a12" opacity="0.41" style="mix-blend-mode: multiply;isolation: isolate"/>
    <path id="Path_10540" data-name="Path 10540" d="M262.411,199.964c-.965-.145-1.918-.3-2.9-.487a12.859,12.859,0,0,0-2.046-2.243,40.517,40.517,0,0,0-3.689-2.809c-.495-.34-.989-.653-1.467-.941a47.123,47.123,0,0,0-4.226-2.258c-1.1-.524-2.139-.946-3.067-1.309a.1.1,0,0,1-.056-.022c-1.4-.529-2.537-.877-3.278-1.078a.337.337,0,0,0-.11-.032c-.563-.161-.878-.232-.878-.232a4.866,4.866,0,0,1-.8-.33.049.049,0,0,1-.041-.011,3.925,3.925,0,0,1-2.409-4.072c.164-1.249,3.761-3.717,8.249-6.331l.012-.014c1.908-1.108,3.975-2.254,6.005-3.357.012-.014.013,0,.013,0,6.12-3.272,11.9-6.035,11.9-6.035l5.542,4.071.014.012,1.251.917.667.489,4.887,3.581s2.916,2.166,6.391,5.017a89.188,89.188,0,0,1,9.021,8.253.756.756,0,0,0,.1.114,16.414,16.414,0,0,1,1.558,2.01c.044.051.06.09.091.128a.041.041,0,0,1,.015.026c1.144,1.852,2.468,3.772,4.041,6.534-.49.09-.982.179-1.488.243a109.22,109.22,0,0,1-15.682,1.391c-.847.008-1.693,0-2.555-.015a3.636,3.636,0,0,1-.538,0c-2.273-.021-4.595-.134-6.948-.324-1.568-.127-3.14-.281-4.74-.486C264.313,200.242,263.362,200.109,262.411,199.964Z" transform="translate(-207.462 -71.88)" fill="#720a12"/>
    <path id="Path_10541" data-name="Path 10541" d="M265.25,202.339c-.937-.12-1.888-.252-2.839-.4s-1.918-.3-2.9-.487a12.86,12.86,0,0,0-2.046-2.243l0-.013a38.035,38.035,0,0,0-3.687-2.8c-.495-.34-.989-.653-1.467-.941a41.344,41.344,0,0,0-4.226-2.258c-1.1-.524-2.139-.946-3.067-1.309a.1.1,0,0,1-.056-.022c-1.4-.529-2.537-.877-3.278-1.078a.334.334,0,0,0-.11-.032c-.563-.161-.878-.232-.878-.232a4.862,4.862,0,0,1-.8-.33.049.049,0,0,1-.041-.011,3.925,3.925,0,0,1-2.409-4.072S255.94,191.055,265.25,202.339Z" transform="translate(-207.462 -73.857)" fill="#720a12" opacity="0.41" style="mix-blend-mode: multiply;isolation: isolate"/>
    <path id="Path_10542" data-name="Path 10542" d="M338.775,188.337s2.473-11.249,3.267-12.169,7.5,4.4,8.747,2.959c.392-.454-17.495-11.39-23.451-13.812,0,0-2.75,2.931-2.641,4.407S338.775,188.337,338.775,188.337Z" transform="translate(-217.204 -71.535)" fill="#910d18"/>
    <path id="Path_10543" data-name="Path 10543" d="M317.4,163.246s.093,2.91-.18,6.546a39.038,39.038,0,0,1-1.453,8.368h-.012c-.8,2.532-1.993,4.588-3.754,5.294-3.933,1.561-18.784-7.75-28.5-14.327h-.012l-.163-.108c-4.107-2.786-7.275-5.051-8.265-5.771l-.33-.24,1.222-19.1,9.761,7.586Z" transform="translate(-211.628 -69.146)" fill="#d95025"/>
    <path id="Path_10544" data-name="Path 10544" d="M318.666,170.385l-.308.816-1.17,1.6c-10.664,8.682-20.373-.91-23.116-2.113-2.679-1.173-10.208-1.654-10.569-1.675h-.012l-.163-.108-8.265-5.771-.33-.24,1.281-20.027,9.7,8.511,9.317,7.531,22.187,10.767Z" transform="translate(-211.628 -69.029)" fill="#ae2d1b"/>
    <path id="Path_10545" data-name="Path 10545" d="M298.189,195.274c-1.827-2.918-3.164-4.636-3.449-5.045l4.628,5c.059.076.1.126.132.164l.015.012.028.025a.041.041,0,0,1,.015.026c1.144,1.852,2.468,3.772,4.041,6.534-.49.09-.982.179-1.488.243C300.686,199.447,299.331,197.112,298.189,195.274Z" transform="translate(-213.861 -74.316)" fill="#ba878a"/>
    <path id="Path_10546" data-name="Path 10546" d="M297.728,194.753s-8.3-1.073-12.13-.792-7.124,3.824-7.124,3.824,4.312-12.7,7.581-13.564S297.728,194.753,297.728,194.753Z" transform="translate(-212.045 -73.64)" fill="#720a12" opacity="0.6" style="mix-blend-mode: multiply;isolation: isolate"/>
    <g id="Group_3942" data-name="Group 3942" transform="translate(48.397 12.47)">
      <path id="Path_10547" data-name="Path 10547" d="M267.728,104.807s-1.877-5.679,3.645-12.074l-.4,4.291s11.946-12.1,22.148-18.146a35.886,35.886,0,0,1,20.1-5.022s-9.579,3.522-11.059,5.239-18.232,12.017-18.232,12.017Z" transform="translate(-259.209 -73.789)" fill="#581815"/>
      <path id="Path_10548" data-name="Path 10548" d="M276.248,141.121l-1.3-5.4-.267-1.082-.291-1.23-.193-.792-2.484-2.157a23.943,23.943,0,0,0-3.352-2.995c.271.4.555.792.825,1.176h.013c1.292,1.842,2.549,3.591,3.506,4.906.045.064.076.115.121.179.075.1.149.2.223.293a1.355,1.355,0,0,1,.121.179c0,.013,0,.013.014.012.12.165.239.318.33.459-2.09-1.191-7.349-3.965-9.686-3.2-2.928.954-1.993,3.44-1.993,3.44s.089-2.829,3.529-1.938a19.7,19.7,0,0,1,5.8,3.406,11.348,11.348,0,0,1-.811,3.8c-.875,2-3.6,1.138-4.028.994.434.224,3.707,1.786,5.6.814,1.255-.657,1.687-2.288,1.832-3.442.588.508.935.832.935.832l-.252-3.437h.013c.054.547.141,1.374.269,2.387.015.2.044.413.074.64a67.47,67.47,0,0,0,1.354,7.282,8.231,8.231,0,0,0,.378-2.555c-.007-.283-.013-.551-.031-.792A12.477,12.477,0,0,0,276.248,141.121Zm-5.894-8.7-1.438-2.569s-3.079-3.123-5.713-2.93-2.6,6.213-2.6,6.213a6.847,6.847,0,0,1,3.35-2.718C266.009,129.825,270.353,132.424,270.353,132.424Z" transform="translate(-258.448 -79.719)" fill="#d95025"/>
      <path id="Path_10549" data-name="Path 10549" d="M332.506,95.775S332.512,97,332.5,98.9c-.005.589-.018,1.238-.027,1.936-.112,5.844-.511,14.987-1.949,17.65l-5.4-8.287-.934-1.432,4.386-6.841Z" transform="translate(-265.545 -76.243)" fill="#390e0d"/>
      <path id="Path_10550" data-name="Path 10550" d="M324.993,119.4c-.707.832-1.384,1.59-1.982,2.282s-3.124,5.044-3.013,6.562,3.454,4.673,3.013,6.854-4.764,10.877-4.764,10.877.665,3.026-.336,5.092-3.063,7.357-9.835,7.853-26.908-18.67-28.328-21.653a41.358,41.358,0,0,1-1.629-6.34c-.885-4.21-1.873-9.661-2.629-13.917-.682-3.912-1.171-6.806-1.171-6.806s.233-.1.651-.289c4.249-1.824,28.033-11.876,34.562-10.769,7.04,1.19,11.609,8.48,13.861,13.982C324.74,116.428,325.259,119.092,324.993,119.4Z" transform="translate(-259.979 -76.61)" fill="url(#linear-gradient-5)"/>
      <path id="Path_10551" data-name="Path 10551" d="M325.41,133.115s-.793.559-2.816-.419-2.761-4.606-2.767-4.691a7.8,7.8,0,0,1,1.54-2.694c.686-.479,5.84.639,5.84.639a29.612,29.612,0,0,0-2.123,4.93A4.326,4.326,0,0,0,325.41,133.115Z" transform="translate(-265.058 -79.527)" fill="#c94a1e"/>
      <path id="Path_10552" data-name="Path 10552" d="M298.1,126.225s4.584-3.784,6.817-3.947,7.9-.954,8.3-.609-4.181,8.221-4.5,7.792-1.118-2.745-2.348-3.1-4.4.2-4.4.2A3.961,3.961,0,0,0,298.1,126.225Z" transform="translate(-262.634 -79.124)" fill="#c94a1e"/>
      <path id="Path_10553" data-name="Path 10553" d="M307.467,130.393A15.878,15.878,0,0,1,301.1,133.4c-1.8.256-3.785-2.126-3.785-2.126S303.936,131.822,307.467,130.393Z" transform="translate(-262.546 -80.107)" fill="#c94a1e"/>
      <path id="Path_10554" data-name="Path 10554" d="M322.241,144.413a13.858,13.858,0,0,1-5.6-.491c-2.167-.892-6.378.167-6.378.167s.5,2.755,1.714,2.583,3.35-1.459,3.893-.99a5.228,5.228,0,0,0,3.066,1.07C320,146.675,323.091,144.69,322.241,144.413Z" transform="translate(-263.991 -81.578)" fill="#d95025"/>
      <path id="Path_10555" data-name="Path 10555" d="M309.4,159.693c-.215-.8,1.093-1.554,2.039-1.875s5.87-1.3,6.8-.5,1.6,1.982.645,3.086S309.881,161.484,309.4,159.693Z" transform="translate(-263.892 -83.078)" fill="#d95025"/>
      <path id="Path_10556" data-name="Path 10556" d="M305.347,154.052s3.269-.711,4.441-2.066S318.5,148.874,319.8,150s-.344,3.023-.344,3.023-.234-1.13-2.55-.96-6.691,2.942-8.61,2.707A10.786,10.786,0,0,1,305.347,154.052Z" transform="translate(-263.442 -82.256)" fill="#d95025"/>
      <path id="Path_10557" data-name="Path 10557" d="M308.294,123.3a16.97,16.97,0,0,0,6.922-3.221,25.923,25.923,0,0,1-5.4,1.5l2.821-2.245s-11.947-3.149-14.538-3.291-8.733,4.373-8.733,4.373a67.3,67.3,0,0,1,7.467-.394C300.366,120.22,305.828,123.166,308.294,123.3Z" transform="translate(-261.658 -78.506)" fill="#440a0b"/>
      <path id="Path_10558" data-name="Path 10558" d="M321.059,125.247a17.632,17.632,0,0,1,2.735-3.977l-.861,1.564a21.6,21.6,0,0,1,3.653-2.043s-.248.011-1.057,1.277c0,0,.9.035,4.685-.243,0,0-.593,2.845-2.2,3.463S323.6,125.061,321.059,125.247Z" transform="translate(-265.196 -79.036)" fill="#440a0b"/>
      <path id="Path_10559" data-name="Path 10559" d="M320.412,125.086a22.8,22.8,0,0,0-1.675,2.94c.022.3,4.152,8.639,3.719,14.325,0,0-.678,1.913-4.741,1.761s-5.518.5-5.518.5a15.054,15.054,0,0,1,5.24-.091c2.432.5,5.314-.125,5.909-1.221.48-.884-1.448-10.026-4.044-15.239Z" transform="translate(-264.207 -79.515)" fill="#440a0b"/>
      <g id="Group_3940" data-name="Group 3940" transform="translate(55.025 46.092)">
        <path id="Path_10560" data-name="Path 10560" d="M320.836,129.188s3.652-2.94,4.771-2.5c.683.27.124,2.259.124,2.259a3.741,3.741,0,0,1-2.1,2.442C322.072,131.871,320.836,129.188,320.836,129.188Z" transform="translate(-320.195 -125.781)" fill="#fff"/>
        <path id="Path_10561" data-name="Path 10561" d="M320.115,129.125s3.611-2.909,5.308-3.4.871,2.281.871,2.281a1.189,1.189,0,0,0-1.355-.759c-1.131.083-4.183,1.827-4.183,1.827Z" transform="translate(-320.115 -125.672)" fill="#440a0b"/>
        <path id="Path_10562" data-name="Path 10562" d="M324.84,126.721s.35,3.151-1.26,4.432L325,130.79a2.5,2.5,0,0,1-1.952.782,2.763,2.763,0,0,1-1.768-.431l-.772-2.171A31.565,31.565,0,0,1,324.84,126.721Z" transform="translate(-320.159 -125.789)" fill="#440a0b"/>
      </g>
      <g id="Group_3941" data-name="Group 3941" transform="translate(32.981 45.175)">
        <path id="Path_10563" data-name="Path 10563" d="M308.2,129.592s-.87-3.132-2.832-2.989-9.132,2.535-9.132,2.535a9.274,9.274,0,0,0,3.663,1.846C301.748,131.3,307.738,130.128,308.2,129.592Z" transform="translate(-295.406 -124.859)" fill="#fff"/>
        <path id="Path_10564" data-name="Path 10564" d="M295.3,129.169s5.892-1.121,8.755-1.795a18.158,18.158,0,0,0,4.628-1.958,8,8,0,0,0-2.392-.616C305.534,124.856,301.564,127.5,295.3,129.169Z" transform="translate(-295.302 -124.658)" fill="#440a0b"/>
        <path id="Path_10565" data-name="Path 10565" d="M309.5,129.972s-.55-3.608-2.088-3.8a7.558,7.558,0,0,0-2.4.42,5.541,5.541,0,0,1,2.141.274C308.531,127.385,309.5,129.972,309.5,129.972Z" transform="translate(-296.385 -124.811)" fill="#440a0b"/>
        <path id="Path_10566" data-name="Path 10566" d="M296.238,129.184a3.99,3.99,0,0,0,2.407,1.605c1.639.361,3.8-.108,4.343-.743A10.966,10.966,0,0,0,304.052,127Z" transform="translate(-295.406 -124.904)" fill="#440a0b"/>
        <path id="Path_10567" data-name="Path 10567" d="M297.318,131.34s3.406-.014,5.742-.185l2.334-.171a31,31,0,0,1-4.413.752A10.638,10.638,0,0,1,297.318,131.34Z" transform="translate(-295.527 -125.349)" fill="#440a0b"/>
        <path id="Path_10568" data-name="Path 10568" d="M296.105,127.317a37.089,37.089,0,0,1,9.151-1.874l2.183-.5S304.951,123.388,296.105,127.317Z" transform="translate(-295.392 -124.641)" fill="#440a0b"/>
      </g>
      <path id="Path_10569" data-name="Path 10569" d="M312.594,146.729a15.116,15.116,0,0,1,3.692-1.613c1.046-.076,1.05,1.266,1.05,1.266A37.7,37.7,0,0,0,312.594,146.729Z" transform="translate(-264.251 -81.75)" fill="#440a0b"/>
      <path id="Path_10570" data-name="Path 10570" d="M304.049,153.939a18.922,18.922,0,0,0,3.426.784c1.993.1,7.508-3.161,10.14-3.079,2.282.072,1.621,2.658,1.621,2.658a1.646,1.646,0,0,0-1.9-1.811c-2.048.15-7.5,3.044-9.838,2.916a4.954,4.954,0,0,1-3.447-1.468Z" transform="translate(-263.297 -82.479)" fill="#440a0b"/>
      <path id="Path_10571" data-name="Path 10571" d="M311.7,157.674s5.568-1.909,6.139-1.951.661,1.452.661,1.452Z" transform="translate(-264.151 -82.935)" fill="#440a0b"/>
      <path id="Path_10572" data-name="Path 10572" d="M316.764,113.308l.555-4.006-3.639,2.082s-5.639-6.491-13.272-4.96-12.427,10.841-13.183,14.45.157,6.523,3.554,11.33c4.023,5.694,8.714,16.174,8.714,16.174L278.2,130.927l-1.716-1.472-1.432-19.54c4.249-1.824,28.033-11.876,34.562-10.769,7.04,1.19,11.608,8.48,13.861,13.982Z" transform="translate(-260.061 -76.61)" fill="#d95025"/>
      <path id="Path_10573" data-name="Path 10573" d="M322.317,168.393q-.433-.392-.781-.75c-.29-.275-.536-.525-.739-.726a2.32,2.32,0,0,0-.174-.175c-.147-.164-.261-.264-.306-.314l2.122,1.068a.151.151,0,0,1-.03-.038c-.013,0-.014-.012-.015-.026a1.467,1.467,0,0,1-.292-.5c-.311-.945.01-2.434.127-4.5.01-.054.006-.108.015-.162,0-.135.007-.27.024-.405l-.006-.094a21.312,21.312,0,0,0-3.023-11.529l-.74-.564-.157-.124a6.379,6.379,0,0,0-1.895-2.563l1.821.269s-3.094-1.682-5.552-1.461-9,1.358-9,1.358a23.231,23.231,0,0,1,4.1.318c-1.484.109-6.665.6-6.665.6a28.072,28.072,0,0,1-3.864-.806c-.811-.236-1.706-.521-2.632-.87a17.607,17.607,0,0,1-6.48-4.042,91.9,91.9,0,0,0-8.1-7.38c-.9-.728-1.614-1.293-2.026-1.6-.257-.2-.4-.307-.4-.307l-.4.743-.546.994-.284.519-.3.545s.02.281.068.748c.054.547.141,1.374.269,2.387.015.2.044.413.074.64a67.47,67.47,0,0,0,1.354,7.282,28.169,28.169,0,0,0,2.3,6.406c3.113,5.782,9.3,9.375,9.7,9.588a26.821,26.821,0,0,1-3.229-6.284,25.007,25.007,0,0,1,2.808,2.914c.265.316.546.659.828,1.028.148.178.3.369.444.559h.013v.013c.46.585.961,1.194,1.533,1.837l.132.152c.06.076.132.152.206.241s.161.176.248.264q.308.34.655.678c.116.113.232.225.346.324a4.251,4.251,0,0,0,.362.35q.564.524,1.206,1.041c.1.086.216.186.33.272.357.283.74.564,1.137.844.355.257.736.5,1.131.751.493.314,1.013.611,1.558.908.281.154.56.295.854.448s.585.293.892.433a.013.013,0,0,0,.014.012c.362.175.737.336,1.126.509l.027,0c.4.171.8.344,1.22.5a25.483,25.483,0,0,0,10.864,1.3c.415-.03.829-.075,1.242-.118q.841-.081,1.6-.2c.465-.075.93-.149,1.354-.235.239-.044.465-.087.676-.13l.649-.128c.04,0,.08-.02.107-.021.423-.1.807-.18,1.176-.275,1.743-.437,2.8-.81,2.8-.81C323.574,169.578,322.91,168.968,322.317,168.393Zm-16.925-17.6-.18.3-.656.314c.364-.161,6.644-2.447,9-2.337a32.12,32.12,0,0,1,3.448.447l.367.053c0,1.344-.711,5.9-1.778,7.3-.271.343-.569.5-.876.346a4.466,4.466,0,0,1-1.945-1.954l-1.624.038A10.27,10.27,0,0,1,309,157.443a5.279,5.279,0,0,1-1.361.691l-.013,0a1.24,1.24,0,0,1-.316.09,3.184,3.184,0,0,1-3.1-.7,8.052,8.052,0,0,1-.711-.714,48.075,48.075,0,0,1-4.314-6.218A11.122,11.122,0,0,0,305.392,150.8Z" transform="translate(-260.18 -80.406)" fill="#581815"/>
      <path id="Path_10574" data-name="Path 10574" d="M284.366,115.048c.351-2.916-4.79-5.188-5.815-5.583.7.419,3.371,2.146,3.574,4.915.232,3.169-.848,9.527-2.931,11.938a5.049,5.049,0,0,0-.817,1.324,7.609,7.609,0,0,0-.307,4.607l-.952.406-.613.26-1.227.506-.6.258-.5.211h-.013s-.3-.394-.777-1.072a1.606,1.606,0,0,1-.135-.192h-.013c-.091-.141-.21-.294-.33-.459v-.013c-.044-.051-.089-.115-.134-.179-.074-.089-.148-.191-.223-.293-.045-.064-.076-.115-.121-.179-.957-1.315-2.214-3.064-3.506-4.906h-.013c-.27-.384-.554-.779-.825-1.176-.976-1.394-1.94-2.8-2.771-4.059a20.82,20.82,0,0,1-2.607-4.568c-.126-1.725,1.481-4.384,1.481-4.384a24.8,24.8,0,0,0-6.018,2.457c.487-.506,5.947-5.988,8.514-6.176a96.4,96.4,0,0,1,10.135.508l.189.012a.208.208,0,0,0,.052-.017c.106-.021.371-.081.728-.147,1.683-.338,5.586-.826,6.7,1.351A5.339,5.339,0,0,1,284.366,115.048Z" transform="translate(-258.177 -77.682)" fill="#581815"/>
      <path id="Path_10575" data-name="Path 10575" d="M333.527,96.745a17.925,17.925,0,0,1-1.3,2.869,45.6,45.6,0,0,1-7.347,9.364c-1.666,1.7-2.873,2.744-2.873,2.744s.267-5.363.107-7.549a6.025,6.025,0,0,1,.011-.673c.031-.386.09-.907.177-1.514.71-5.227,3.1-17.134,3.1-17.134a25.346,25.346,0,0,1,2.64,1.3,16.786,16.786,0,0,1,4.788,3.72C334.39,91.795,334.386,94.208,333.527,96.745Z" transform="translate(-265.301 -75.024)" fill="#390e0d"/>
      <path id="Path_10576" data-name="Path 10576" d="M321.97,84.767c.011.143.021.286.021.442.051,3.31-2.25,9.279-4.585,14.457-.442,1-.9,1.975-1.336,2.9-1.842,3.881-3.406,6.782-3.406,6.782a.2.2,0,0,0-.015-.047c-.318-.733-4.858-11.232-6.155-11.233-9.211-.01-28.41,7.557-28.41,7.557l-10.317-.517.169-3.77c.18-3.76,28.406-24.968,38.523-24.881C313.464,76.5,321.584,80.328,321.97,84.767Z" transform="translate(-259.247 -74.087)" fill="#581815"/>
      <path id="Path_10577" data-name="Path 10577" d="M309.328,130.981a30.2,30.2,0,0,1-6.15,4.272S307.627,133.747,309.328,130.981Z" transform="translate(-263.2 -80.173)" fill="#ae2d1b"/>
      <path id="Path_10578" data-name="Path 10578" d="M321.563,132.684s1.632,1.779,3.16,3.183l-2.268-1.541Z" transform="translate(-265.252 -80.363)" fill="#ae2d1b"/>
      <path id="Path_10579" data-name="Path 10579" d="M306.006,129.252c.015.213-.719.441-1.641.508s-1.682-.051-1.7-.264.719-.44,1.641-.507S305.99,129.039,306.006,129.252Z" transform="translate(-263.143 -79.949)" fill="#fff"/>
      <path id="Path_10580" data-name="Path 10580" d="M325.7,129.863c.012.175-.511.357-1.17.405s-1.2-.055-1.215-.23.51-.357,1.169-.405S325.691,129.688,325.7,129.863Z" transform="translate(-265.448 -80.021)" fill="#fff"/>
      <path id="Path_10581" data-name="Path 10581" d="M315.028,126.509l2.506,11.531s1.133,1,.984-1.017S315.824,126.451,315.028,126.509Z" transform="translate(-264.523 -79.674)" fill="#fff" style="mix-blend-mode: soft-light;isolation: isolate"/>
      <path id="Path_10582" data-name="Path 10582" d="M316.163,141.588c-.076-1.038-2.995-1.217-2.926-.254S316.21,142.222,316.163,141.588Z" transform="translate(-264.323 -81.258)" fill="#fff" style="mix-blend-mode: soft-light;isolation: isolate"/>
      <path id="Path_10583" data-name="Path 10583" d="M312.648,111.5c-.318-.733-4.858-11.232-6.155-11.233-9.211-.01-28.41,7.557-28.41,7.557l-10.317-.517.169-3.77s1.036,2.336,7.569,2.845c7.95.618,29.694-10.016,32.274-10.2C310.275,95.993,312.445,110.529,312.648,111.5Z" transform="translate(-259.247 -76.288)" fill="#390e0d"/>
      <path id="Path_10584" data-name="Path 10584" d="M323.085,168.97s-1.062.373-2.8.81c-.37.094-.753.176-1.176.275-.027,0-.067.018-.107.021l-.649.128c-.211.043-.437.085-.676.13-.437.086-.876.159-1.354.235q-.758.116-1.6.2c-.413.044-.827.088-1.242.118a25.483,25.483,0,0,1-10.864-1.3c-.415-.158-.817-.33-1.22-.5l-.027,0c-.389-.173-.764-.334-1.126-.509a.013.013,0,0,1-.014-.012c-.307-.139-.612-.278-.892-.433-.293-.139-.586-.293-.854-.448-.546-.3-1.065-.594-1.558-.908-.4-.253-.776-.494-1.131-.751-.4-.28-.78-.561-1.137-.844-.114-.086-.229-.186-.33-.272q-.642-.518-1.206-1.041a4.27,4.27,0,0,1-.362-.35c-.115-.1-.23-.211-.346-.324q-.348-.337-.655-.678c-.087-.088-.161-.177-.248-.264s-.147-.164-.206-.241l-.131-.152c-.572-.643-1.073-1.252-1.533-1.837v-.013c-.148-.191-.31-.38-.458-.558-.283-.369-.563-.712-.828-1.028a25.009,25.009,0,0,0-2.808-2.914,26.82,26.82,0,0,0,3.229,6.284c-.392-.213-6.584-3.807-9.7-9.588a28.168,28.168,0,0,1-2.3-6.406,67.419,67.419,0,0,1-1.354-7.282c-.03-.227-.059-.439-.074-.64-.128-1.013-.215-1.84-.269-2.387h-.013s-.3-.394-.777-1.072a1.614,1.614,0,0,1-.135-.192h-.013c-.091-.141-.21-.294-.33-.459-.013,0-.013,0-.014-.012a1.351,1.351,0,0,0-.121-.179c-.074-.089-.148-.191-.223-.293-.045-.064-.076-.115-.121-.179-.957-1.315-2.214-3.064-3.506-4.906h-.013c-.27-.384-.554-.779-.825-1.176-.976-1.394-1.94-2.8-2.771-4.059a34.876,34.876,0,0,0,8.908,4.147c.275.087.564.174.852.247h.013a10.144,10.144,0,0,1,3.283,1.883,7.609,7.609,0,0,0-.307,4.607,91.9,91.9,0,0,1,8.1,7.38,17.607,17.607,0,0,0,6.48,4.042,5.252,5.252,0,0,1,.719,2.287c.363,2.018.706,5.044,1.239,8.1a35.351,35.351,0,0,0,1.671,6.667c2.222,5.74,9.913,8.322,10.284,8.429-.265-.316-4.557-5.312-5.6-7.965a16.588,16.588,0,0,0,8.253,5.486,14.4,14.4,0,0,0,9.371-.74,16.393,16.393,0,0,1-2.559-8.861s.117,1.6,2.549,3.591a10.939,10.939,0,0,0,1.831,4.074.152.152,0,0,0,.03.038l-2.122-1.068c.044.05.159.149.306.314a2.317,2.317,0,0,1,.174.175c.2.2.45.451.739.726q.348.357.781.75C321.8,167.84,322.469,168.451,323.085,168.97Z" transform="translate(-259.075 -79.278)" fill="#390e0d" opacity="0.76"/>
      <path id="Path_10585" data-name="Path 10585" d="M300.68,169.218c-.306-.139-.612-.278-.892-.433-.293-.139-.586-.293-.854-.448-.545-.3-1.065-.594-1.558-.908-.4-.253-.775-.494-1.131-.751-.4-.28-.78-.561-1.137-.844a18.01,18.01,0,0,1-1.535-1.313,4.254,4.254,0,0,1-.362-.35c-.115-.1-.23-.211-.346-.324q-.348-.337-.655-.678c-.087-.088-.161-.177-.248-.264s-.147-.164-.206-.241l-.132-.152c-.026-.028-.047-.055-.073-.084-.539-.609-1.027-1.2-1.461-1.754l-.014-.012c-.148-.19-.3-.381-.444-.559-.282-.369-.563-.712-.828-1.028A25.007,25.007,0,0,0,286,156.164a26.821,26.821,0,0,0,3.229,6.284c-.392-.213-6.584-3.807-9.7-9.588a28.165,28.165,0,0,1-2.3-6.406,67.432,67.432,0,0,1-1.354-7.282c-.03-.227-.059-.439-.074-.64-.128-1.013-.215-1.84-.269-2.387h-.013s-.3-.394-.777-1.072a1.338,1.338,0,0,1-.121-.179.013.013,0,0,1-.014-.012H274.6c-.091-.141-.21-.294-.33-.459v-.013h-.013a1.357,1.357,0,0,0-.121-.179c-.106-.154-.224-.306-.344-.473-.957-1.315-2.214-3.064-3.505-4.906.384.093,2.893,2.786,5.19,4.769a2.856,2.856,0,0,1,.576.711,7.527,7.527,0,0,1,.583,1.342c1.19,3.569,1.439,10.1,3.8,13.1,2.99,3.747,10.279,6.144,11.847,10.116C293.792,162.745,300.275,168.831,300.68,169.218Z" transform="translate(-259.528 -79.936)" fill="#250e0c" opacity="0.82"/>
      <path id="Path_10586" data-name="Path 10586" d="M272.5,101.019a59.746,59.746,0,0,1,30.4-10.643c11.512-.571,13.835-.806,13.835-.806s-4-2.034-13.06-1.557c0,0,8.253-2.624,12.484-2.416A5.811,5.811,0,0,1,321.4,89.68s1.034-6.721-4.35-7.078-13.626,1.414-13.626,1.414A49.883,49.883,0,0,1,316.5,80.732s-8.093-3.159-19.326.066-24.4,17.1-24.4,17.1l8.369-4.59Z" transform="translate(-259.776 -74.41)" fill="#fff8c8" opacity="0.8" style="mix-blend-mode: soft-light;isolation: isolate"/>
    </g>
    <path id="Path_10587" data-name="Path 10587" d="M296.451,191.889s-7.724-9.388-10.71-9.17-8.558,12.179-8.558,12.179a111.776,111.776,0,0,1-9.158-22.4,52.179,52.179,0,0,1-1.116-5.237s4.8-8.769,7.353-8.957c1.959-.143,7.412,11.681,11.41,18.557l.012.011a20.515,20.515,0,0,0,3.109,4.42c3.371,2.91,7.394,10.12,7.643,10.571A.036.036,0,0,1,296.451,191.889Z" transform="translate(-210.754 -70.753)" fill="#910d18"/>
    <path id="Path_10588" data-name="Path 10588" d="M283.419,176.864c-.275-.3-4.774-5.174-10.619-5.623a11.654,11.654,0,0,0-2.586.1,24.017,24.017,0,0,0-4.443,1.154c-3.945,1.382-8.128,3.454-12.748,3.984a37.173,37.173,0,0,1-6.3.186c7.669-4.488,17.935-9.407,17.935-9.407s4.8-8.769,7.353-8.957C273.968,158.164,279.421,169.988,283.419,176.864Z" transform="translate(-208.501 -70.753)" fill="#720a12" opacity="0.6" style="mix-blend-mode: multiply;isolation: isolate"/>
    <path id="Path_10589" data-name="Path 10589" d="M342.683,191.767l-.559-1.021c-.247.125-.493.25-.753.364-.168.093-.337.172-.52.253a.047.047,0,0,1-.026.015h-.013l-.2-.388-.061-.1.152-.683.335-1.49V188.7l.134-.548.014.012,1.046,2.519Z" transform="translate(-218.974 -74.084)" fill="#ba878a"/>
    <path id="Path_10590" data-name="Path 10590" d="M280.9,204.753c-2.273-.021-4.595-.134-6.948-.324-.8-1.958-1.293-3.522-.995-3.866.409-.474,3.979,1.469,7.862,3.82.211.119.409.252.619.371A3.631,3.631,0,0,1,280.9,204.753Z" transform="translate(-211.419 -75.461)" fill="#720a12" opacity="0.6" style="mix-blend-mode: multiply;isolation: isolate"/>
    <path id="Path_10591" data-name="Path 10591" d="M342.881,192.085l-.559-1.021a.433.433,0,0,0,.1-.061Z" transform="translate(-219.172 -74.402)" fill="#fff"/>
    <path id="Path_10592" data-name="Path 10592" d="M313.259,147.315s-9.706-1.2-15.076,4.628-11.037,6.9-13.654,1.2c0,0,3.526,10.212,15.91,2.842s13.17-5.374,13.17-5.374Z" transform="translate(-212.721 -69.514)" fill="#7e1c1e"/>
    <path id="Path_10593" data-name="Path 10593" d="M316.734,147.263a6.751,6.751,0,0,1,8.535,2.559c3.6,5.043,6.717,5.341,7.329-.641,0,0-.487,10.563-7.975,4.934s-7.634-3.552-7.634-3.552Z" transform="translate(-216.316 -69.452)" fill="#7e1c1e"/>
    <path id="Path_10594" data-name="Path 10594" d="M314.182,148.215s-6.934-.49-9.17,1.774-5.388,5.08-6.814,5.333a51.563,51.563,0,0,0,7.641-4.565c3.532-2.627,8.241-1.6,8.241-1.6Z" transform="translate(-214.247 -69.621)" fill="#a1252a"/>
    <path id="Path_10595" data-name="Path 10595" d="M317.36,148.056a5.266,5.266,0,0,1,6.563,1.314c2.929,3.388,4.05,4.062,4.05,4.062a36.952,36.952,0,0,1-4.817-3.8,5.157,5.157,0,0,0-5.768-1.19Z" transform="translate(-216.386 -69.538)" fill="#a1252a"/>
    <path id="Path_10596" data-name="Path 10596" d="M271.223,138.456c1.236-1.7,1.885-3.083.689-3.8a6.75,6.75,0,0,0-1-.491c-.544-.082-1.087-.163-1.606-.273-.491-.1-.969-.2-1.436-.324-.342-.083-.685-.179-1.014-.275-.248-.076-.5-.152-.729-.229a23.99,23.99,0,0,1-2.657-1.029c-.306-.139-.6-.279-.892-.432a1.2,1.2,0,0,1-.139-.071c-.307-.152-.6-.306-.9-.472q-.357-.2-.674-.394c-.267-.155-.52-.312-.775-.481-.338-.2-.664-.436-.976-.668s-.638-.451-.937-.684c-.712-.553-1.373-1.123-2.009-1.722-.288-.261-.563-.537-.84-.813-.58-.589-1.122-1.195-1.638-1.816a34.212,34.212,0,0,1-3.761-5.465c-.326-.594-.638-1.176-.921-1.747-.142-.285-.27-.558-.4-.845-.078-.142-.142-.285-.205-.415-.162-.365-.322-.716-.454-1.056-.014-.012-.014-.012-.015-.026-.163-.378-.311-.757-.445-1.11a4.726,4.726,0,0,1-.2-.51c-.068-.183-.133-.354-.2-.523q-.1-.316-.2-.59c-.123-.381-.228-.723-.316-1.012,0-.028-.017-.039-.019-.067a.19.19,0,0,0-.032-.078,2.719,2.719,0,0,0-.092-.343c-.091-.315-.162-.553-.185-.685a.416.416,0,0,0-.036-.132l-1.747.935C236.211,136.034,271.223,138.456,271.223,138.456Z" transform="translate(-208.108 -65.347)" fill="#d3d3d2"/>
    <path id="Path_10597" data-name="Path 10597" d="M254.535,125.629a36.138,36.138,0,0,1-3.761-5.465A34.209,34.209,0,0,0,254.535,125.629Z" transform="translate(-208.954 -66.495)" fill="#e50019"/>
    <path id="Path_10598" data-name="Path 10598" d="M273.129,131.022c-.459,1.07-.809,1.794-.869,1.906a6.861,6.861,0,0,0-1-.491c-.544-.081-1.087-.162-1.606-.272-.491-.1-.969-.2-1.436-.325-.342-.083-.685-.179-1.015-.275-.248-.076-.5-.152-.729-.228a24.161,24.161,0,0,1-2.657-1.029c-.306-.139-.6-.279-.892-.433a1.013,1.013,0,0,1-.139-.07c-.307-.152-.6-.306-.9-.473q-.357-.195-.674-.394c-.267-.155-.52-.312-.775-.482-.338-.2-.664-.435-.976-.668-.325-.218-.638-.45-.937-.684-.713-.553-1.373-1.123-2.009-1.722-.288-.261-.563-.537-.839-.812-.581-.59-1.123-1.195-1.638-1.816a36.113,36.113,0,0,1-3.761-5.465c-.326-.6-.638-1.177-.922-1.747-.141-.286-.269-.559-.4-.845-.077-.142-.141-.285-.205-.416-.161-.364-.321-.716-.453-1.055-.014-.012-.014-.012-.016-.026-.162-.378-.311-.757-.444-1.11-.08-.182-.147-.352-.2-.51-.068-.183-.134-.353-.2-.522-.069-.211-.138-.407-.2-.591-.123-.38-.228-.722-.316-1.012,0-.027-.017-.039-.019-.066a.181.181,0,0,0-.033-.078,2.686,2.686,0,0,0-.091-.343,4.942,4.942,0,0,0-.185-.686.418.418,0,0,0-.036-.131,7.38,7.38,0,0,1-.183-2.864c.394-4.169,3-9.873,5.55-10.677,3.219-1.03,5.8,3.433,5.8,3.433.117.314.248.627.378.927.127.273.242.561.383.819.128.286.27.571.425.842q.537,1.01,1.15,1.933c.272.41.544.807.828,1.2.014.012.029.038.043.051.269.37.537.727.818,1.07,4.45,5.509,10.453,9.075,13.221,11.629C277.838,119.141,274.778,127.284,273.129,131.022Z" transform="translate(-208.456 -63.626)" fill="#d3d3d2"/>
    <path id="Path_10599" data-name="Path 10599" d="M250.774,120.164a34.209,34.209,0,0,0,3.761,5.465A36.138,36.138,0,0,1,250.774,120.164Z" transform="translate(-208.954 -66.495)" fill="#e50019"/>
    <path id="Path_10600" data-name="Path 10600" d="M293.668,99.081c-4.039.645-12.092,8.374-14.1,11.936a15.41,15.41,0,0,1-1.2,1.835c-1.29,1.654-2.062,1.577-2.062,1.577-2.768-2.554-8.771-6.12-13.221-11.629-.281-.343-.549-.7-.818-1.07-.014-.012-.029-.038-.044-.051-.284-.4-.556-.793-.828-1.2q-.612-.923-1.15-1.933c-.155-.271-.3-.556-.425-.842-.14-.259-.256-.546-.383-.819-.13-.3-.26-.613-.378-.927a12.669,12.669,0,0,1-.774-4.326c-.087-5.224,2.4-11.053,5.834-13.415a13.517,13.517,0,0,1,7.538-2.448,14.819,14.819,0,0,1,6.832,1.677,25.433,25.433,0,0,1,6.691,4.9C294.235,91.214,293.668,99.081,293.668,99.081Z" transform="translate(-209.792 -61.54)" fill="#d3d3d2"/>
    <path id="Path_10601" data-name="Path 10601" d="M314.25,90.84s-3.561-3.826-9.354-.686a38.067,38.067,0,0,0-9.547,7.5s.567-7.867-8.486-16.735a25.432,25.432,0,0,0-6.691-4.9,14.819,14.819,0,0,0-6.832-1.677,14.693,14.693,0,0,1,.8-1.4,22.747,22.747,0,0,1,7.9-7.557,18.23,18.23,0,0,1,17.341-.4,26.209,26.209,0,0,1,6.148,3.906C307.556,70.68,319.19,80.838,314.25,90.84Z" transform="translate(-211.472 -60.115)" fill="#d3d3d2"/>
    <path id="Path_10602" data-name="Path 10602" d="M328.63,104.893s-2.75-11.307-9.931-13.524v-.013a7.655,7.655,0,0,0-1.176-.277c4.94-10-6.694-20.16-8.72-21.947a26.209,26.209,0,0,0-6.148-3.906,27.689,27.689,0,0,1,4.342,0c6.512.424,18.7,2.986,24.653,15.726C339.992,98.844,328.63,104.893,328.63,104.893Z" transform="translate(-214.744 -60.354)" fill="#d3d3d2"/>
    <path id="Path_10603" data-name="Path 10603" d="M274.863,65.02a22.539,22.539,0,0,0-8.7,8.959,13.517,13.517,0,0,0-7.538,2.447c-4.429,3.054-7.3,11.883-5.06,17.741,0,0-2.585-4.462-5.8-3.433s-6.538,9.863-5.367,13.542l-1.747.935c-.083-.935-.19-1.855-.31-2.76-2.219-16.347-9.929-26.7-14.123-20.813-4.424,6.227-29.338,23.822-9.79-5.171,17.522-26.008,50.585-14.583,57.246-11.938C274.445,64.835,274.863,65.02,274.863,65.02Z" transform="translate(-204.294 -59.752)" fill="#910d18"/>
    <path id="Path_10604" data-name="Path 10604" d="M318.7,91.356a7.655,7.655,0,0,0-1.176-.277c4.94-10-6.694-20.16-8.72-21.947a26.209,26.209,0,0,0-6.148-3.906,27.689,27.689,0,0,1,4.342,0C312.5,67.812,325,75.649,318.7,91.356Z" transform="translate(-214.744 -60.354)" fill="#9e9e9e"/>
    <path id="Path_10605" data-name="Path 10605" d="M295.349,98.861s.567-7.867-8.486-16.735a25.433,25.433,0,0,0-6.691-4.9,14.819,14.819,0,0,0-6.832-1.677,14.692,14.692,0,0,1,.8-1.4c2.2-.632,6.472-.851,12.49,3.482C295.7,84.154,297.661,95.559,295.349,98.861Z" transform="translate(-211.472 -61.32)" fill="#9e9e9e"/>
    <path id="Path_10606" data-name="Path 10606" d="M278.369,114.846c-1.29,1.654-2.062,1.577-2.062,1.577-2.768-2.554-8.771-6.12-13.221-11.629-.281-.343-.549-.7-.818-1.07-.014-.012-.029-.038-.044-.051-.284-.4-.556-.793-.828-1.2q-.612-.924-1.15-1.933c-.155-.271-.3-.556-.425-.842-.14-.259-.256-.546-.383-.819-.13-.3-.26-.613-.378-.927a12.667,12.667,0,0,1-.774-4.326,35.629,35.629,0,0,0,5.081,6.955C265.866,102.909,269.983,109.921,278.369,114.846Z" transform="translate(-209.792 -63.533)" fill="#9e9e9e"/>
    <path id="Path_10607" data-name="Path 10607" d="M273.129,132.382c-.459,1.07-.809,1.794-.869,1.906a6.861,6.861,0,0,0-1-.491c-.544-.081-1.087-.162-1.606-.272-.491-.1-.969-.2-1.436-.325-.342-.083-.685-.179-1.015-.275-.248-.076-.5-.152-.729-.228a24.164,24.164,0,0,1-2.657-1.029c-.306-.139-.6-.279-.892-.433a1.013,1.013,0,0,1-.139-.07c-.307-.152-.6-.306-.9-.473q-.357-.195-.674-.394c-.267-.155-.52-.312-.775-.482-.338-.2-.664-.435-.976-.668-.325-.218-.638-.45-.937-.684-.713-.553-1.373-1.123-2.009-1.722-.288-.261-.563-.537-.839-.812-.581-.59-1.123-1.195-1.638-1.816a36.115,36.115,0,0,1-3.761-5.465c-.326-.6-.638-1.177-.922-1.747-.141-.286-.269-.559-.4-.845-.077-.142-.141-.285-.205-.416-.161-.364-.321-.716-.453-1.055-.014-.012-.014-.012-.016-.026-.162-.378-.311-.757-.444-1.11-.08-.182-.147-.352-.2-.51-.068-.183-.134-.353-.2-.522-.069-.211-.138-.407-.2-.591-.123-.38-.228-.722-.316-1.012,0-.027-.017-.039-.019-.066a.181.181,0,0,0-.033-.078,2.685,2.685,0,0,0-.091-.343,4.944,4.944,0,0,0-.185-.686.417.417,0,0,0-.036-.131,7.38,7.38,0,0,1-.183-2.864s3.686,21.685,26.716,25.726C273.1,132.371,273.116,132.383,273.129,132.382Z" transform="translate(-208.456 -64.987)" fill="#9e9e9e"/>
    <path id="Path_10608" data-name="Path 10608" d="M278.8,65.62a22.54,22.54,0,0,0-8.7,8.959,13.517,13.517,0,0,0-7.538,2.448c-4.429,3.054-7.3,11.883-5.06,17.741,0,0-2.585-4.462-5.8-3.433s-6.538,9.863-5.367,13.542l-1.747.935c-.083-.935-.19-1.855-.31-2.76l.258-.154c.954-16.889,10.606-13.24,10.606-13.24-.9-16.74,13.3-17.78,13.3-17.78,2.181-5.645,9.173-6.749,9.173-6.749C278.378,65.435,278.8,65.62,278.8,65.62Z" transform="translate(-208.228 -60.352)" fill="#720a12" opacity="0.6" style="mix-blend-mode: multiply;isolation: isolate"/>
    <path id="Path_10609" data-name="Path 10609" d="M269.75,80.323s3.171-2.728,9.976,2.256S275.031,81.249,269.75,80.323Z" transform="translate(-211.072 -61.965)" fill="#fff"/>
    <path id="Path_10610" data-name="Path 10610" d="M252.461,101.143s4.183.044,6,8.282S255.816,105.325,252.461,101.143Z" transform="translate(-209.142 -64.372)" fill="#fff"/>
    <path id="Path_10611" data-name="Path 10611" d="M246.762,118.138s-2.565,3.3,2.757,9.849S247.953,123.366,246.762,118.138Z" transform="translate(-208.437 -66.269)" fill="#fff"/>
    <path id="Path_10612" data-name="Path 10612" d="M292.621,66.879s3.171-2.729,9.976,2.256S297.9,67.8,292.621,66.879Z" transform="translate(-213.624 -60.464)" fill="#fff"/>
    <path id="Path_10613" data-name="Path 10613" d="M325.853,78.229s4.145.558,4.938,8.957S328.668,82.793,325.853,78.229Z" transform="translate(-217.334 -61.815)" fill="#fff"/>
    <path id="Path_10614" data-name="Path 10614" d="M372.948,200.892c-13.234-8.863-22.312-11.839-31.161-11.357-15.742.818-30.746,12.51-67.178,21.132-13.032,3.084-23.773,2.078-32.6-1.327H242c-29.674-11.425-37.585-49.84-37.585-49.84,19.268,28.091,31.081,40.024,89.462,23.09C351.508,165.869,372.439,200.021,372.948,200.892Z" transform="translate(-203.779 -70.886)" fill="#f77e0b"/>
    <path id="Path_10615" data-name="Path 10615" d="M369.835,200.745c-22.674-9.171-28.346-9.1-66.386,16.05-37.625,24.886-82.583-3.3-83.562-3.915,11.21,4.867,24.39,4.921,37.852,2.454h.013c34.661-6.355,71.093-29.378,80.129-29.512a35.816,35.816,0,0,1,7.321.643.567.567,0,0,1,.147.027C360.328,189.389,369.835,200.745,369.835,200.745Z" transform="translate(-205.506 -73.824)" fill="url(#linear-gradient-6)"/>
    <path id="Path_10616" data-name="Path 10616" d="M309.631,265.15v8.413H311Z" transform="translate(-215.523 -82.679)" fill="#510710" opacity="0.6" style="mix-blend-mode: multiply;isolation: isolate"/>
    <path id="Path_10617" data-name="Path 10617" d="M356.957,275.839l-1.892,8.445h1.176Z" transform="translate(-220.594 -83.872)" fill="#510710"/>
    <path id="Path_10618" data-name="Path 10618" d="M239,303.521v13.4s-.246,12.419-16.371,12.359v-.814c.009,0,.009,0,.017-.009C238.147,324.829,239,303.521,239,303.521Z" transform="translate(-205.811 -86.962)" fill="url(#linear-gradient-7)"/>
    <path id="Path_10619" data-name="Path 10619" d="M286.354,242.231s-8.271,2.766-9.467,18.475v-9.017A9.463,9.463,0,0,1,286.354,242.231Z" transform="translate(-211.868 -80.12)" fill="url(#linear-gradient-8)"/>
    <path id="Path_10620" data-name="Path 10620" d="M382.608,298.277h-3.172a8.021,8.021,0,0,1-7.82-6.243l-1.518-6.693C374.948,298.209,382.456,298.277,382.608,298.277Z" transform="translate(-222.272 -84.932)" fill="url(#linear-gradient-9)"/>
    <path id="Path_10621" data-name="Path 10621" d="M348.2,186.433a35.818,35.818,0,0,0-7.321-.643c-9.037.134-45.468,23.157-80.129,29.512h-.013a47.672,47.672,0,0,1-14-3.057c11.786,2.869,56.7-11.625,70.609-20.77C330.5,182.813,346.524,186.059,348.2,186.433Z" transform="translate(-208.503 -73.791)" fill="#d26618"/>
    <path id="Path_10622" data-name="Path 10622" d="M203.792,307.9a.344.344,0,0,0-.093-.018C203.759,307.895,203.792,307.9,203.792,307.9Z" transform="translate(-203.699 -87.449)" fill="#f77e0b"/>
    <path id="Path_10623" data-name="Path 10623" d="M297.355,220.365s-21.785,10.061-39.706,5.224C257.649,225.589,276.85,234.544,297.355,220.365Z" transform="translate(-209.721 -77.68)" fill="#fff" opacity="0.33"/>
    <g id="Group_3943" data-name="Group 3943" transform="translate(49.168 58.337)">
      <path id="Path_10624" data-name="Path 10624" d="M274.624,138.788c-.03-.227-.059-.439-.074-.64-.128-1.013-.215-1.84-.269-2.387h-.013l.252,3.437s-.346-.324-.935-.832c-.145,1.153-.577,2.785-1.832,3.442-1.892.972-5.166-.59-5.6-.814.427.144,3.153,1.007,4.028-.994a11.349,11.349,0,0,0,.811-3.8,19.7,19.7,0,0,0-5.8-3.406c-3.44-.891-3.529,1.938-3.529,1.938s-.935-2.486,1.993-3.44c2.337-.762,7.6,2.011,9.686,3.2-.091-.141-.21-.294-.33-.459-.013,0-.013,0-.014-.012a1.348,1.348,0,0,0-.121-.179c-.074-.089-.148-.191-.223-.293-.045-.064-.076-.116-.121-.179-.957-1.315-2.214-3.064-3.506-4.906h-.013c-.27-.384-.554-.779-.825-1.176-1.49-1.061-3.251-1.98-4.816-1.866-3.584.262-5.463,6.356-3.594,12.229s9.284,12.4,13.57,11.066a3.816,3.816,0,0,0,.418-.165h.013a3.945,3.945,0,0,0,2.2-2.487A67.454,67.454,0,0,1,274.624,138.788Zm-14.193-5.817s-.038-6.02,2.6-6.213,5.713,2.93,5.713,2.93l1.438,2.569s-4.344-2.6-6.4-2A6.847,6.847,0,0,0,260.431,132.971Z" transform="translate(-259.045 -125.419)" fill="#d95025"/>
      <path id="Path_10625" data-name="Path 10625" d="M274.524,135.736l.306,4.186s-.346-.324-.934-.832c-.634-.572-1.551-1.352-2.592-2.163a19.7,19.7,0,0,0-5.8-3.406c-3.44-.891-3.529,1.938-3.529,1.938s-.934-2.486,1.994-3.44c2.337-.762,7.6,2.011,9.686,3.2h.013a.013.013,0,0,0,.014.012C274.2,135.545,274.524,135.736,274.524,135.736Z" transform="translate(-259.356 -126.141)" fill="#ae2d1b"/>
      <path id="Path_10626" data-name="Path 10626" d="M274.551,138.377a9.473,9.473,0,0,1-.073,1.2c-.145,1.153-.577,2.785-1.832,3.442-1.892.972-5.166-.59-5.6-.814.427.144,3.153,1.007,4.028-.994a11.346,11.346,0,0,0,.811-3.8c.017-.687,0-1.142,0-1.142Z" transform="translate(-259.938 -126.631)" fill="#ae2d1b"/>
      <path id="Path_10627" data-name="Path 10627" d="M270.353,132.424s-4.344-2.6-6.4-2a6.847,6.847,0,0,0-3.35,2.718s-.038-6.02,2.6-6.213,5.713,2.93,5.713,2.93Z" transform="translate(-259.219 -125.586)" fill="url(#linear-gradient-10)"/>
    </g>
  </g>
</svg>
